<svg width="30" height="30" viewBox="0 0 30 30" fill="none" xmlns="http://www.w3.org/2000/svg">
<g clip-path="url(#clip0)">
<path fill-rule="evenodd" clip-rule="evenodd" d="M26.7031 18.4469C26.7031 18.4469 29.1286 20.8424 29.7286 21.9509C29.7403 21.9669 29.7494 21.9846 29.7556 22.0034C30.0001 22.4129 30.0601 22.7339 29.9401 22.9709C29.7376 23.3624 29.0521 23.5589 28.8196 23.5754H24.5326C24.2341 23.5754 23.6131 23.4974 22.8571 22.9754C22.2796 22.5719 21.7051 21.9074 21.1486 21.2579C20.3176 20.2934 19.5991 19.4564 18.8716 19.4564C18.7798 19.4562 18.6885 19.4715 18.6016 19.5014C18.0511 19.6754 17.3521 20.4599 17.3521 22.5494C17.3521 23.2034 16.8361 23.5754 16.4746 23.5754H14.5111C13.8421 23.5754 10.3591 23.3414 7.27064 20.0849C3.48614 16.0979 0.0871351 8.09994 0.0541351 8.02944C-0.157365 7.51194 0.286635 7.22994 0.766635 7.22994H5.09564C5.67614 7.22994 5.86514 7.58094 5.99714 7.89594C6.15014 8.25744 6.71714 9.70344 7.64714 11.3279C9.15314 13.9709 10.0786 15.0464 10.8181 15.0464C10.9571 15.0468 11.0937 15.0106 11.2141 14.9414C12.1801 14.4104 12.0001 10.9604 11.9551 10.2494C11.9551 10.1114 11.9536 8.70894 11.4586 8.03094C11.1046 7.54494 10.5016 7.35594 10.1371 7.28694C10.2346 7.14594 10.4416 6.92994 10.7071 6.80244C11.3686 6.47244 12.5641 6.42444 13.7506 6.42444H14.4091C15.6961 6.44244 16.0291 6.52494 16.4971 6.64344C17.4391 6.86844 17.4571 7.47894 17.3746 9.55794C17.3506 10.1519 17.3251 10.8209 17.3251 11.6084C17.3251 11.7764 17.3176 11.9639 17.3176 12.1544C17.2891 13.2209 17.2516 14.4224 18.0046 14.9159C18.1023 14.9768 18.2151 15.009 18.3301 15.0089C18.5911 15.0089 19.3726 15.0089 21.4921 11.3714C22.4221 9.76494 23.1421 7.87044 23.1916 7.72794C23.2336 7.64844 23.3596 7.42494 23.5126 7.33494C23.6215 7.27703 23.7434 7.2481 23.8666 7.25094H28.9591C29.5141 7.25094 29.8906 7.33494 29.9641 7.54494C30.0871 7.88544 29.9401 8.92494 27.6151 12.0689C27.2236 12.5924 26.8801 13.0454 26.5786 13.4414C24.4711 16.2074 24.4711 16.3469 26.7031 18.4469V18.4469Z" fill="white"/>
</g>
<defs>
<clipPath id="clip0">
<rect width="30" height="30" fill="white"/>
</clipPath>
</defs>
</svg>
